<?xml version="1.0" encoding="utf-8"?>
<!-- Generator: Adobe Illustrator 19.2.1, SVG Export Plug-In . SVG Version: 6.00 Build 0)  -->
<svg version="1.1" id="Ebene_1" xmlns="http://www.w3.org/2000/svg" xmlns:xlink="http://www.w3.org/1999/xlink" x="0px" y="0px"
	 viewBox="0 0 355.8 134" style="enable-background:new 0 0 355.8 134;" xml:space="preserve">
<style type="text/css">
	.st0{fill:#D51224;}
	.st1{fill:#FFFFFF;}
</style>
<path class="st0" d="M74.9,102.5H18.1C8.1,102.5,0,94.4,0,84.4V18.1C0,8.1,8.1,0,18.1,0h69.2c1.9,0,3.5,1.6,3.5,3.5v83.1
	C90.7,95.4,83.6,102.5,74.9,102.5z"/>
<path d="M323.3,95h-24.7c-1.3,0-1.9-0.6-1.9-1.9v-4.9c0-1.2,0.6-1.8,1.9-1.8h23.3c7.2,0,10.8-2.7,10.8-8v-2.6
	c0-4.9-2.4-8.3-7.1-10.1l-16.4-6.9c-4.7-1.9-8.1-4.2-10.1-6.9c-2-2.6-3-6.1-3-10.5c0-11.4,6.2-17,18.7-17h22.7
	c1.3,0,1.9,0.6,1.9,1.9v4.9c0,1.2-0.6,1.8-1.9,1.8h-20.9c-3.3,0-5.8,0.7-7.6,2.1c-1.7,1.4-2.6,3-2.6,4.9v2.4c0,3.9,2.6,6.8,7.9,8.9
	l16.4,7.3c4.8,1.8,8.1,4.3,9.8,7.3c1.7,3,2.6,7.3,2.6,12.6C343.1,89.5,336.5,95,323.3,95z"/>
<path d="M119.7,33H148c1.3,0,1.9-0.6,1.9-1.9v-5c0-1.2-0.6-1.8-1.9-1.8h-29.4c-6.4,0-11.4,1.8-15,5.4c-3.7,3.6-5.5,8.6-5.5,15.1
	v14.9v0v14.9c0,6.5,1.8,11.5,5.5,15.1c3.6,3.6,8.7,5.4,15,5.4H148c1.3,0,1.9-0.6,1.9-1.8v-5c0-1.3-0.6-1.9-1.9-1.9h-28.3
	c-7.8,0-11.6-4-11.6-12.1v-8.5c0-0.8,0.5-1.2,1.4-1.2h31.9h0.5h5.9c1.3,0,1.9-0.7,1.9-2.1v-2.8v0v-2.8c0-1.4-0.6-2.1-1.9-2.1h-5.9
	h-0.5h-31.9c-0.9,0-1.4-0.4-1.4-1.2v-8.5C108.1,37,112,33,119.7,33z"/>
<g>
	<path d="M195.4,58.7v-0.6l20.4-31.6c0.5-0.6,0.6-1.2,0.3-1.6c-0.2-0.4-0.7-0.6-1.5-0.6h-6.9c-1.7,0-2.8,0.6-3.3,1.8l-19.7,31
		c-0.6,1-0.6,2,0,2.9l21.3,33c0.8,1.3,2.1,1.9,3.9,1.9h6.5c0.7,0,1.2-0.2,1.5-0.6c0.3-0.4,0.2-0.9-0.1-1.6L195.4,58.7z"/>
	<path d="M175.9,24.4h-6.2c-1.3,0-1.9,0.6-1.9,1.9v24.2v1.2v41.4c0,1.3,0.6,1.9,1.9,1.9h6.2c1.3,0,1.9-0.6,1.9-1.9V51.7v-1.2V26.3
		C177.8,25,177.2,24.4,175.9,24.4z"/>
</g>
<path d="M278.3,24.4h-30.1c-6.4,0-11.4,1.8-15,5.4c-3.7,3.6-5.5,8.6-5.5,15.1v13.8h0V93c0,1.3,0.6,1.9,1.9,1.9h6.2
	c1.3,0,1.9-0.6,1.9-1.9V64.5h32.3v8.9c0,0.2,0,0.3,0,0.4v13.8h0v5.4c0,1.3,0.6,1.9,1.9,1.9h6.2c1.3,0,1.9-0.6,1.9-1.9V26.3
	C280.2,25,279.6,24.4,278.3,24.4z M237.8,54.7v-9.4c0-8,3.8-12.1,11.5-12.1h19.4c0.9,0,1.4,0.4,1.4,1.2v20.3H237.8z"/>
<g>
	<path class="st0" d="M125.9,115.2c0,0.1,0,0.3,0,0.4c0,0.2-0.1,0.4-0.1,0.5c-0.1,0.2-0.1,0.4-0.2,0.5c-0.1,0.2-0.2,0.3-0.3,0.4h0
		c-0.3,0.3-0.9,0.5-2,0.5c0-0.4,0-0.7,0-1c0-0.3-0.1-0.5-0.2-0.7c-0.1-0.1-0.2-0.3-0.3-0.4s-0.3-0.2-0.5-0.2
		c-0.2-0.1-0.4-0.1-0.6-0.1c-0.2,0-0.4,0-0.5,0c-0.4,0-0.7,0-1.1,0s-0.7,0.1-1.1,0.1c-0.3,0.1-0.7,0.1-1.1,0.2
		c-0.4,0.1-0.7,0.2-1.1,0.4c-0.3,0.1-0.5,0.2-0.8,0.4c-0.3,0.2-0.6,0.3-0.8,0.5c-0.3,0.2-0.5,0.4-0.7,0.6c-0.2,0.2-0.3,0.5-0.3,0.7
		l0,0c0,0.2,0.1,0.4,0.2,0.7c0.1,0.3,0.3,0.5,0.6,0.8c0.2,0.3,0.5,0.5,0.8,0.7c0.3,0.2,0.7,0.4,1,0.5c0,0,0.1,0,0.2,0.1
		c0.1,0,0.3,0.1,0.4,0.2c0.2,0.1,0.4,0.1,0.6,0.2c0.2,0.1,0.4,0.1,0.6,0.2c0.2,0.1,0.3,0.1,0.4,0.1c0.1,0,0.2,0.1,0.2,0.1
		c2,0.5,3.6,1.1,4.5,1.9s1.5,1.6,1.5,2.7c0,0.3-0.1,0.7-0.2,1c-0.1,0.3-0.3,0.7-0.6,1c-0.2,0.3-0.5,0.6-0.7,0.8
		c-0.3,0.3-0.5,0.5-0.8,0.7l0,0c-0.3,0.2-0.5,0.4-0.9,0.6c-0.3,0.2-0.7,0.4-1,0.6s-0.8,0.4-1.1,0.6c-0.4,0.2-0.8,0.3-1.2,0.5
		c-0.4,0.1-0.8,0.2-1.2,0.3c-0.4,0.1-0.9,0.2-1.3,0.3s-0.8,0.1-1.2,0.2c-0.4,0-0.7,0.1-1.1,0.1c-0.2,0-0.4,0-0.6-0.1
		c-0.2,0-0.5-0.1-0.8-0.2c-0.3-0.1-0.5-0.2-0.8-0.3c-0.3-0.1-0.5-0.2-0.7-0.3s-0.4-0.3-0.5-0.4c-0.1-0.1-0.2-0.3-0.2-0.4
		c0-0.1,0-0.3,0.1-0.5s0.1-0.4,0.2-0.6c0.1-0.2,0.2-0.4,0.4-0.5c0.1-0.1,0.3-0.2,0.4-0.2c0.2,0,0.4,0,0.6,0.1s0.4,0.1,0.7,0.2
		c0.2,0.1,0.5,0.1,0.8,0.2c0.3,0.1,0.7,0.1,1.2,0.1s1-0.1,1.5-0.2c0.5-0.1,1-0.2,1.5-0.4c0.5-0.2,1-0.4,1.4-0.6s0.9-0.4,1.2-0.7
		c0.2-0.1,0.3-0.2,0.5-0.4c0.2-0.1,0.4-0.3,0.5-0.4c0.2-0.2,0.3-0.3,0.4-0.5c0.1-0.2,0.2-0.4,0.2-0.5c0-0.2-0.2-0.4-0.5-0.6v0
		c-0.5-0.3-0.9-0.5-1.4-0.6s-0.9-0.3-1.2-0.4c-1-0.2-2.1-0.6-3.5-1.2h0c-0.6-0.2-1.1-0.5-1.7-0.9s-1-0.7-1.4-1.1
		c-0.9-1-1.3-2.1-1.3-3.4c0-0.5,0.1-1,0.4-1.5s0.7-0.9,1.1-1.3c0.5-0.4,1-0.8,1.7-1.2c0.6-0.4,1.3-0.7,2-0.9
		c0.7-0.3,1.5-0.4,2.2-0.6c0.8-0.1,1.5-0.2,2.2-0.2c0.2,0,0.5,0,0.8,0c0.3,0,0.7,0.1,1,0.1c0.3,0.1,0.7,0.1,1,0.2
		c0.3,0.1,0.6,0.2,0.8,0.3h0c0.5,0.3,0.9,0.6,1.2,1C125.7,114.5,125.9,114.9,125.9,115.2z"/>
	<path class="st0" d="M144.7,120.2c0,0.2,0,0.3-0.1,0.5c-0.1,0.1-0.2,0.3-0.3,0.4c-0.1,0.1-0.2,0.2-0.3,0.3
		c-0.1,0.1-0.2,0.2-0.4,0.2c-0.4,0.2-0.8,0.3-1.3,0.5c-0.5,0.1-0.9,0.2-1.4,0.3c-0.4,0.1-0.9,0.2-1.3,0.2c-0.4,0.1-0.8,0.1-1.2,0.2
		c-0.2,0-0.5,0.1-0.8,0.1c-0.3,0-0.5,0.1-0.8,0.1c-0.3,0-0.5,0.1-0.7,0.1c-0.2,0-0.4,0.1-0.6,0.1c-0.2,0.7-0.4,1.5-0.5,2.1
		c-0.2,0.7-0.3,1.3-0.4,1.9c0,0.1,0,0.3-0.1,0.4s-0.1,0.4-0.1,0.6c0,0.2-0.1,0.5-0.1,0.7c0,0.2-0.1,0.5-0.1,0.7
		c0,0.2-0.1,0.4-0.1,0.6c0,0.2,0,0.3,0,0.4c0,0.3,0,0.5,0.1,0.7c0.1,0.1,0.2,0.2,0.3,0.3c0.2,0.1,0.3,0.3,0.4,0.4
		c0.1,0.1,0.2,0.3,0.2,0.5c0,0.2-0.1,0.3-0.2,0.5c-0.1,0.2-0.3,0.3-0.5,0.4c-0.2,0.1-0.4,0.2-0.6,0.3s-0.4,0.1-0.6,0.1
		c-0.3,0-0.6-0.1-0.9-0.2c-0.3-0.2-0.5-0.4-0.7-0.6s-0.3-0.5-0.4-0.9s-0.1-0.7-0.1-1c0-0.6,0-1.2,0.1-1.9c0.1-0.7,0.2-1.4,0.4-2.1
		c0.1-0.3,0.1-0.6,0.2-1c0.1-0.4,0.2-0.7,0.2-1.1c0.1-0.3,0.1-0.6,0.2-0.9c0.1-0.3,0.1-0.4,0.1-0.5c-0.2,0-0.5,0-0.8,0.1
		c-0.3,0-0.8,0.1-1.2,0.1c-0.4,0-0.7,0-1-0.1c-0.3,0-0.5-0.1-0.7-0.3c-0.2-0.1-0.3-0.3-0.4-0.5c-0.1-0.2-0.1-0.5-0.1-0.9
		c0-0.2,0.1-0.4,0.2-0.5c0.1-0.1,0.3-0.2,0.6-0.3c0.2-0.1,0.4-0.1,0.7-0.1c0.2,0,0.4,0,0.6,0c0.1,0,0.2,0,0.5,0c0.2,0,0.5,0,0.7-0.1
		c0.3,0,0.5,0,0.8-0.1c0.2,0,0.4,0,0.6,0c0,0,0.1-0.1,0.2-0.3c0.1-0.2,0.1-0.4,0.2-0.6s0.1-0.6,0.2-0.9c0.1-0.3,0.1-0.6,0.2-0.9
		c0.1-0.3,0.1-0.6,0.2-0.9c0.1-0.3,0.1-0.5,0.1-0.6c0.1-0.4,0.2-0.8,0.2-1.2c0.1-0.5,0.2-0.9,0.3-1.3c0.1-0.4,0.3-0.8,0.6-1
		c0.2-0.3,0.6-0.4,1-0.4c0.5,0,0.8,0.1,1.1,0.3c0.2,0.2,0.3,0.5,0.3,1c0,0.2,0,0.5-0.1,0.8c0,0.3-0.1,0.6-0.2,0.9
		c-0.2,0.7-0.4,1.3-0.5,1.9c-0.1,0.6-0.3,1.1-0.4,1.5c-0.1,0.4-0.2,0.9-0.3,1.4c0.4,0,0.7,0,1,0c0.3,0,0.7,0,1,0
		c0.3,0,0.7,0,1.1-0.1c0.4,0,0.8-0.1,1.2-0.1c0.5-0.1,0.9-0.1,1.3-0.2c0.4-0.1,0.7-0.1,0.9-0.2c0.3-0.1,0.5-0.1,0.7-0.1
		c0.2,0,0.4-0.1,0.7-0.1c0.1,0,0.2,0,0.3,0.1C144.6,119.8,144.7,119.9,144.7,120.2z"/>
	<path class="st0" d="M159.3,121.3c0,0.2,0,0.3-0.1,0.5s-0.1,0.4-0.2,0.5c-0.1,0.2-0.2,0.4-0.3,0.5s-0.2,0.3-0.3,0.5
		c-0.5,0.7-1.1,1.3-1.6,1.9c-0.6,0.6-1.2,1.2-1.8,1.7c-0.3,0.3-0.6,0.5-1,0.8c-0.3,0.2-0.7,0.4-1,0.6s-0.7,0.3-1,0.4
		s-0.6,0.1-0.9,0.1c-0.3,0-0.7-0.1-1-0.3c-0.3-0.2-0.6-0.5-0.8-0.8c-0.2-0.3-0.4-0.7-0.6-1c-0.1-0.4-0.2-0.7-0.2-1
		c-0.1,0.2-0.3,0.4-0.5,0.6s-0.4,0.5-0.6,0.8c-0.2,0.3-0.4,0.5-0.6,0.7c-0.2,0.2-0.3,0.4-0.4,0.5c-0.3,0.3-0.6,0.6-1,0.9
		s-0.7,0.6-1.1,0.9c-0.4,0.3-0.7,0.5-1,0.6c-0.3,0.2-0.6,0.2-0.7,0.2c-0.4,0-0.8-0.1-1.1-0.2c-0.4-0.1-0.7-0.3-1-0.5
		c-0.3-0.2-0.5-0.5-0.7-0.9c-0.2-0.3-0.3-0.7-0.3-1.2c0-0.4,0.1-0.9,0.2-1.4c0.1-0.5,0.3-1.1,0.5-1.6c0.2-0.6,0.5-1.1,0.7-1.7
		s0.6-1.1,0.9-1.7c0.3-0.5,0.7-1.1,1.1-1.5c0.4-0.5,0.8-0.9,1.2-1.3c0.7-0.7,1.4-1.2,2.2-1.5s1.6-0.5,2.5-0.5c0.2,0,0.4,0,0.6,0.1
		s0.3,0.1,0.4,0.2c0.1,0.1,0.2,0.2,0.3,0.3c0.1,0.1,0.1,0.3,0.2,0.4c0,0.1,0.1,0.1,0.2,0.3c0.1,0.1,0.2,0.2,0.3,0.4s0.2,0.3,0.3,0.4
		c0.1,0.1,0.1,0.3,0.1,0.4c0,0.2,0,0.4-0.1,0.6c-0.1,0.2-0.1,0.5-0.2,0.7c-0.1,0.3-0.1,0.6-0.2,1c-0.1,0.4-0.1,0.8-0.1,1.2
		c0,0.3,0,0.6,0.1,0.9c0,0.4,0.1,0.7,0.2,1c0.1,0.3,0.2,0.6,0.3,0.8c0.1,0.2,0.3,0.3,0.4,0.3c0.2,0,0.3,0,0.5-0.1
		c0.1,0,0.3-0.1,0.4-0.2c0.1-0.1,0.3-0.2,0.4-0.3c0.1-0.1,0.3-0.2,0.5-0.3c0.5-0.4,1.1-0.9,1.6-1.4c0.5-0.5,1.1-1,1.7-1.6
		c0.2-0.1,0.3-0.3,0.5-0.5c0.2-0.2,0.3-0.4,0.5-0.5c0.2-0.2,0.4-0.3,0.5-0.4c0.2-0.1,0.3-0.2,0.5-0.2
		C159.2,120.7,159.3,120.9,159.3,121.3z M148.7,119.6c0,0,0-0.1,0-0.2c0-0.1,0-0.1,0-0.2c-0.3,0-0.6,0.1-1,0.3
		c-0.3,0.2-0.7,0.5-1.1,0.9c-0.4,0.4-0.8,0.9-1.3,1.5c-0.5,0.6-0.9,1.4-1.4,2.2c-0.1,0.2-0.3,0.5-0.4,0.8c-0.1,0.3-0.3,0.6-0.4,0.9
		c-0.1,0.3-0.2,0.7-0.3,1c-0.1,0.4-0.1,0.7-0.1,1.1c0,0.1,0,0.3,0.1,0.3c0.1,0.1,0.2,0.1,0.3,0.1c0.2,0,0.5-0.1,0.8-0.3
		c0.3-0.2,0.7-0.5,1-0.9c0.4-0.4,0.8-0.8,1.1-1.3c0.4-0.5,0.8-1,1.1-1.5c0.3-0.5,0.6-1,0.9-1.6c0.3-0.5,0.4-1,0.5-1.4
		c0-0.1,0.1-0.3,0.1-0.5c0-0.2,0.1-0.3,0.1-0.5c0-0.2,0.1-0.3,0.1-0.5S148.7,119.7,148.7,119.6z"/>
	<path class="st0" d="M159.7,119.8c0.1,0,0.3,0,0.4,0.1c0.1,0,0.2,0.1,0.3,0.2c0.1,0.1,0.2,0.2,0.3,0.2c0.1,0.1,0.1,0.2,0.2,0.2
		c0.1,0.1,0.1,0.3,0.1,0.4c0,0.2,0,0.3,0,0.5c0,0.2,0,0.4,0,0.7s0,0.5-0.1,0.8c0,0.3-0.1,0.5-0.1,0.7c0,0.2-0.1,0.5-0.1,0.7
		s-0.1,0.5-0.1,0.8c0,0.3-0.1,0.6-0.1,1c0.2-0.4,0.3-0.9,0.5-1.3c0.2-0.4,0.4-0.9,0.6-1.3c0.2-0.4,0.4-0.9,0.7-1.3
		c0.3-0.4,0.5-0.8,0.9-1.2c0.2-0.2,0.5-0.5,0.8-0.7c0.3-0.2,0.6-0.4,1-0.6c0.4-0.2,0.7-0.3,1.1-0.4c0.4-0.1,0.7-0.1,1.1-0.1
		c0.3,0,0.5,0,0.8,0.1s0.5,0.2,0.8,0.3s0.4,0.3,0.6,0.5s0.3,0.4,0.3,0.6c0,0.1,0,0.2-0.1,0.4c-0.1,0.2-0.2,0.4-0.3,0.5
		c-0.1,0.2-0.2,0.4-0.3,0.5c-0.1,0.1-0.3,0.2-0.4,0.2c0,0-0.1,0-0.2,0c-0.1,0-0.3,0-0.4,0c-0.1,0-0.3,0-0.4,0c-0.1,0-0.2,0-0.3,0
		c-0.2,0-0.4,0-0.6,0.1c-0.2,0-0.4,0.1-0.6,0.2c-0.2,0.1-0.4,0.2-0.6,0.4c-0.2,0.2-0.4,0.4-0.6,0.6c-0.2,0.3-0.5,0.6-0.7,1
		c-0.3,0.4-0.5,0.8-0.8,1.3c-0.2,0.4-0.5,0.9-0.7,1.4c-0.2,0.5-0.4,0.9-0.6,1.4c-0.1,0.2-0.2,0.5-0.3,0.8c-0.1,0.3-0.2,0.6-0.3,0.9
		c-0.1,0.3-0.2,0.6-0.2,0.9c-0.1,0.3-0.1,0.6-0.2,0.9c0,0.1-0.1,0.2-0.2,0.3c-0.2,0.1-0.3,0.2-0.5,0.3s-0.4,0.2-0.6,0.2
		c-0.2,0.1-0.3,0.1-0.4,0.1c-0.3,0-0.6-0.1-0.8-0.3s-0.4-0.5-0.5-0.8c-0.1-0.3-0.2-0.7-0.2-1.1s-0.1-0.7-0.1-1c0-0.2,0-0.5,0-0.9
		c0-0.3,0-0.7,0-1.1c0-0.4,0-0.8,0.1-1.2c0-0.4,0-0.8,0.1-1.1c0-0.4,0-0.7,0-1c0-0.3,0-0.6,0-0.8c0-0.4,0-0.8,0-1.1s0-0.4,0-0.6
		c0-0.1,0-0.2,0-0.3c0,0,0-0.1,0-0.1c0,0,0-0.1,0-0.1c0,0,0-0.1,0-0.1c0-0.2,0.1-0.5,0.2-0.7c0.1-0.2,0.3-0.4,0.4-0.6
		c0.2-0.2,0.4-0.3,0.6-0.4C159.3,119.8,159.5,119.8,159.7,119.8z"/>
	<path class="st0" d="M188.9,130c0,0.2-0.1,0.4-0.4,0.6s-0.5,0.3-0.9,0.5c-0.3,0.1-0.7,0.2-1,0.3c-0.3,0.1-0.6,0.1-0.9,0.1
		c-0.8,0-1.6-0.1-2.2-0.3c-0.7-0.2-1.4-0.4-2.1-0.7c-0.7-0.3-1.4-0.6-2-1c-0.6-0.4-1.2-0.8-1.8-1.1c-0.2-0.1-0.4-0.3-0.6-0.4
		c-0.2-0.1-0.3-0.2-0.5-0.3s-0.3-0.2-0.5-0.3c-0.2-0.1-0.4-0.2-0.6-0.3c-0.4,0.3-0.7,0.6-0.9,0.9c-0.2,0.3-0.4,0.5-0.6,0.7
		c-0.1,0.2-0.3,0.5-0.3,0.7c-0.1,0.2-0.1,0.5-0.2,0.8c0,0.2-0.1,0.4-0.2,0.7c-0.1,0.2-0.2,0.5-0.3,0.7c-0.1,0.2-0.3,0.4-0.5,0.5
		c-0.2,0.1-0.5,0.2-0.8,0.2c-0.2,0-0.4,0-0.5,0c-0.1,0-0.2-0.1-0.3-0.2c-0.1-0.1-0.1-0.2-0.1-0.4c0-0.2,0-0.4,0-0.7
		c0-0.1,0-0.3,0.1-0.7c0-0.3,0.1-0.8,0.2-1.2c0.1-0.5,0.1-1,0.2-1.6c0.1-0.6,0.2-1.2,0.3-1.8c0.1-0.6,0.2-1.2,0.3-1.9
		c0.1-0.6,0.2-1.2,0.2-1.7c0.1-0.5,0.1-1,0.2-1.4c0.1-0.4,0.1-0.7,0.1-0.8c0-0.3,0.1-0.6,0.1-1c0-0.4,0.1-0.7,0.1-1.1
		c0-0.4,0.1-0.8,0.1-1.1c0-0.4,0.1-0.7,0.1-1.1c0.1-0.8,0.1-1.7,0.2-2.5c0-0.2,0.1-0.4,0.2-0.5c0.1-0.2,0.3-0.3,0.5-0.4
		c0.2-0.1,0.4-0.2,0.6-0.3c0.2-0.1,0.4-0.1,0.6-0.1c0.2,0,0.4,0,0.6,0.1c0.1,0.1,0.3,0.2,0.4,0.3c0.1,0.1,0.1,0.3,0.2,0.4
		s0.1,0.3,0.1,0.4c0,0.1,0,0.3-0.1,0.6s-0.1,0.6-0.1,1s-0.1,0.8-0.2,1.3c-0.1,0.5-0.2,0.9-0.2,1.4c-0.1,0.5-0.2,0.9-0.2,1.4
		c-0.1,0.5-0.1,0.9-0.2,1.3c-0.1,0.4-0.1,0.7-0.2,1c0,0.3-0.1,0.5-0.1,0.6c-0.1,0.5-0.2,1-0.3,1.5c-0.1,0.4-0.2,0.8-0.2,1.2
		c-0.1,0.3-0.1,0.6-0.2,0.9s-0.1,0.5-0.1,0.7c0.2-0.2,0.4-0.5,0.7-0.7s0.5-0.5,0.7-0.8c0.2-0.3,0.5-0.6,0.7-0.8
		c0.2-0.3,0.4-0.5,0.6-0.8c0.2-0.2,0.4-0.4,0.5-0.6c0.1-0.2,0.2-0.3,0.3-0.3c0.4-0.4,0.8-0.9,1.2-1.4c0.4-0.5,0.8-0.9,1.3-1.3
		c0.4-0.4,0.8-0.7,1.2-0.9c0.4-0.2,0.7-0.4,1-0.4c0.9,0,1.3,0.3,1.3,0.8c0,0.2,0,0.3-0.1,0.5c-0.1,0.2-0.2,0.4-0.3,0.6
		s-0.3,0.4-0.4,0.6s-0.3,0.3-0.4,0.5c-0.1,0.1-0.3,0.3-0.5,0.5c-0.2,0.2-0.4,0.4-0.7,0.7c-0.2,0.2-0.5,0.5-0.8,0.7s-0.5,0.5-0.8,0.7
		c-0.2,0.2-0.5,0.4-0.7,0.6s-0.4,0.4-0.5,0.5c-0.2,0.2-0.4,0.4-0.5,0.5c-0.1,0.1-0.2,0.2-0.3,0.3c0.8,0.5,1.6,0.9,2.4,1.4
		c0.8,0.5,1.6,0.9,2.4,1.3c0.8,0.4,1.5,0.7,2.3,1c0.8,0.3,1.5,0.5,2.2,0.6c0.3,0,0.5,0.1,0.7,0.1c0.2,0,0.4,0,0.6,0
		c0.3,0,0.6,0,0.7,0.1C188.8,129.6,188.9,129.8,188.9,130z"/>
	<path class="st0" d="M215.1,121.8c0,0.1,0,0.2-0.1,0.3s-0.1,0.3-0.3,0.5c-0.3,0.5-0.8,1.1-1.3,1.8c-0.5,0.6-1.1,1.3-1.7,1.9
		c-0.6,0.6-1.3,1.3-2,1.8c-0.7,0.6-1.4,1.1-2.1,1.6c-0.7,0.5-1.4,0.8-2.2,1.1c-0.7,0.3-1.4,0.4-2.1,0.4c-0.8,0-1.5-0.1-2.2-0.3
		s-1.1-0.6-1.5-1c-0.4-0.4-0.7-1-0.9-1.6c-0.2-0.6-0.3-1.3-0.3-2.1c0-0.6,0-1.2,0.1-1.9c0.1-0.7,0.3-1.4,0.5-2.1
		c0.2-0.7,0.6-1.4,1-2.1c0.4-0.7,1-1.4,1.6-2c0.5-0.5,1-0.9,1.6-1.2s1.1-0.4,1.7-0.4c0.1,0,0.2,0,0.4,0.1c0.1,0,0.3,0.1,0.4,0.2
		s0.3,0.2,0.4,0.3c0.1,0.1,0.3,0.2,0.3,0.3c0.3,0.4,0.5,0.7,0.6,1c0.1,0.3,0.2,0.7,0.2,1.1c0,0.6-0.1,1.2-0.3,1.7s-0.4,1-0.7,1.4
		c-0.3,0.4-0.7,0.9-1.1,1.3c-0.4,0.4-0.9,0.8-1.3,1.3c-0.3,0.3-0.7,0.6-1.1,0.9c-0.4,0.3-0.9,0.7-1.4,1c0.1,0.3,0.2,0.5,0.3,0.7
		c0.1,0.2,0.2,0.4,0.4,0.5c0.2,0.1,0.3,0.2,0.6,0.3c0.2,0.1,0.5,0.1,0.8,0.1c0.4,0,0.9-0.1,1.3-0.2c0.5-0.1,0.9-0.3,1.4-0.5
		c0.4-0.2,0.8-0.4,1.2-0.7c0.4-0.3,0.8-0.6,1.2-0.9c0.3-0.2,0.6-0.5,1-0.8c0.4-0.4,0.8-0.7,1.2-1.1c0.3-0.3,0.6-0.5,0.8-0.8
		c0.3-0.3,0.6-0.5,0.9-0.8l0.7-0.7c0.5-0.4,0.9-0.6,1.2-0.6c0.2,0,0.3,0,0.3,0.1C215.1,121.6,215.1,121.7,215.1,121.8z M204.9,120.4
		c0-0.4-0.1-0.7-0.2-0.8c-0.1-0.2-0.3-0.2-0.4-0.2c-0.1,0-0.3,0.1-0.5,0.2s-0.4,0.4-0.5,0.6c-0.2,0.3-0.4,0.6-0.6,0.9
		c-0.2,0.4-0.4,0.7-0.5,1.1c-0.2,0.4-0.3,0.8-0.4,1.2c-0.1,0.4-0.2,0.8-0.2,1.2c0.3-0.2,0.5-0.4,0.7-0.6c0.2-0.2,0.4-0.4,0.6-0.5
		c0.2-0.2,0.4-0.4,0.6-0.7c0.2-0.3,0.5-0.5,0.7-0.8c0.2-0.3,0.4-0.6,0.5-0.9C204.8,120.9,204.9,120.6,204.9,120.4z"/>
	<path class="st0" d="M235.8,122.3c0,0.2,0,0.3-0.1,0.5c-0.1,0.2-0.1,0.4-0.2,0.6c-0.1,0.2-0.2,0.4-0.3,0.5
		c-0.1,0.2-0.2,0.3-0.3,0.4c-0.3,0.4-0.6,0.7-0.9,1.1c-0.3,0.4-0.7,0.8-1.1,1.2c-0.4,0.4-0.8,0.8-1.2,1.1c-0.4,0.4-0.8,0.7-1.2,0.9
		c-0.3,0.2-0.6,0.4-0.9,0.6c-0.3,0.2-0.6,0.3-0.9,0.5c-0.3,0.1-0.6,0.3-1,0.3c-0.3,0.1-0.7,0.1-1.1,0.1c-0.7,0-1.2-0.1-1.6-0.4
		c-0.4-0.3-0.8-0.6-1.1-1.1c-0.3-0.4-0.5-0.9-0.6-1.5c-0.1-0.6-0.3-1.2-0.3-1.8c-0.1-0.8-0.2-1.5-0.4-2c-0.1-0.5-0.3-0.7-0.5-0.7
		c-0.2,0-0.3,0-0.5,0.1c-0.2,0.1-0.4,0.3-0.6,0.5c-0.3,0.3-0.6,0.7-0.9,1.2c-0.4,0.5-0.9,1.2-1.5,2.1c-0.2,0.3-0.5,0.6-0.8,1
		c-0.3,0.4-0.6,0.7-1,1.1c-0.3,0.3-0.7,0.6-1,0.9c-0.3,0.3-0.6,0.4-0.9,0.5c-1.1-0.2-1.7-1.3-1.7-3.2c0-0.5,0.1-1.2,0.2-2.1
		c0.1-0.4,0.1-0.8,0.2-1.3c0.1-0.5,0.1-0.9,0.3-1.4c0.1-0.5,0.2-0.9,0.4-1.4c0.1-0.4,0.3-0.9,0.5-1.2c0.1-0.2,0.2-0.4,0.4-0.5
		c0.1-0.1,0.3-0.2,0.4-0.3c0.1-0.1,0.3-0.1,0.4-0.1s0.3,0,0.4,0c0.1,0,0.3,0,0.4,0.1c0.1,0.1,0.2,0.2,0.3,0.3
		c0.1,0.1,0.2,0.3,0.2,0.4c0.1,0.2,0.1,0.4,0.1,0.6c0,0.2,0,0.4-0.1,0.6c0,0.2-0.1,0.4-0.1,0.6c-0.1,0.2-0.1,0.4-0.2,0.6
		c-0.1,0.2-0.1,0.5-0.2,0.8c0,0.2-0.1,0.4-0.2,0.7c-0.1,0.3-0.2,0.6-0.3,0.9c-0.1,0.3-0.2,0.6-0.2,0.9c-0.1,0.3-0.1,0.5-0.1,0.8
		c0.2-0.2,0.3-0.4,0.5-0.7c0.2-0.3,0.4-0.6,0.7-0.9c0.2-0.3,0.5-0.6,0.7-1s0.5-0.7,0.7-0.9c0.3-0.4,0.6-0.8,0.9-1.1
		c0.3-0.3,0.6-0.6,0.9-0.9c0.3-0.3,0.7-0.4,1.1-0.6c0.4-0.1,0.8-0.2,1.3-0.2c0.6,0,1,0.1,1.4,0.3c0.4,0.2,0.6,0.6,0.9,1
		c0.2,0.4,0.4,0.9,0.5,1.5c0.1,0.6,0.2,1.2,0.3,1.9c0,0.3,0.1,0.7,0.1,1.1c0.1,0.4,0.1,0.7,0.3,1c0.1,0.3,0.3,0.5,0.4,0.7
		c0.2,0.2,0.4,0.3,0.7,0.3c0.4,0,0.8-0.1,1.3-0.3c0.5-0.2,1-0.5,1.5-0.9s1.1-0.8,1.6-1.3s1.1-1,1.7-1.6c0.2-0.2,0.3-0.4,0.5-0.5
		c0.2-0.2,0.3-0.3,0.5-0.5c0.1-0.1,0.3-0.3,0.4-0.3s0.3-0.1,0.4-0.1c0.1,0,0.1,0,0.2,0c0.1,0,0.1,0,0.2,0.1c0.1,0,0.1,0.1,0.2,0.2
		C235.8,122,235.8,122.1,235.8,122.3z"/>
	<path class="st0" d="M248,120.4c0,0.2-0.1,0.4-0.3,0.6c-0.2,0.2-0.5,0.4-0.8,0.5s-0.7,0.3-1.1,0.4c-0.4,0.1-0.8,0.2-1.3,0.3
		c-0.4,0.1-0.8,0.2-1.2,0.3c-0.4,0.1-0.7,0.1-1,0.2c-1,0.1-1.8,0.2-2.5,0.3c-0.7,0.1-1.1,0.2-1.4,0.3c-0.2,0.7-0.3,1.3-0.5,2
		c-0.2,0.7-0.3,1.4-0.4,2c-0.1,0.6-0.2,1.2-0.3,1.6c-0.1,0.5-0.1,0.8-0.1,0.9c0,0.1,0,0.2,0,0.3c0,0.1,0,0.2,0,0.2
		c0,0.1,0,0.1,0.1,0.2c0,0.1,0,0.1,0.1,0.2c0,0.1,0.1,0.2,0.1,0.4c0,0.2,0.1,0.3,0.1,0.4c0,0.1,0.1,0.3,0.1,0.4c0,0.1,0,0.2,0,0.3
		c0,0.2,0,0.3-0.1,0.5c-0.1,0.2-0.2,0.4-0.3,0.6c-0.1,0.2-0.3,0.3-0.5,0.4c-0.2,0.1-0.4,0.2-0.6,0.2c-0.2,0-0.5-0.1-0.7-0.2
		c-0.2-0.1-0.4-0.3-0.5-0.5c-0.2-0.2-0.3-0.4-0.4-0.7c-0.1-0.3-0.2-0.5-0.3-0.8c-0.1-0.3-0.1-0.5-0.2-0.7c0-0.2-0.1-0.4-0.1-0.6
		c0-0.1,0-0.4,0-0.7c0-0.3,0.1-0.6,0.2-1c0.3-1,0.5-1.9,0.6-2.5c0.1-0.7,0.3-1.2,0.3-1.6c0.1-0.4,0.1-0.7,0.1-0.9c0-0.2,0-0.3,0-0.4
		c-0.1,0-0.3,0-0.5,0c-0.2,0-0.4,0-0.7,0.1c-0.2,0-0.4,0-0.6,0.1c-0.2,0-0.3,0-0.4,0c-0.5,0-0.9,0-1.2-0.1s-0.6-0.2-0.8-0.4
		c-0.2-0.2-0.3-0.4-0.4-0.8c-0.1-0.3-0.1-0.8-0.1-1.3c0.4,0,0.8,0,1.1-0.1c0.3,0,0.6-0.1,0.8-0.1c0.1,0,0.2,0,0.5,0
		c0.3,0,0.6,0,0.9-0.1c0.3,0,0.7-0.1,1-0.1c0.3,0,0.6-0.1,0.7-0.1c0-0.1,0.1-0.3,0.1-0.5s0.1-0.4,0.2-0.7c0.1-0.3,0.1-0.5,0.2-0.8
		s0.1-0.5,0.2-0.7c0-0.1,0.1-0.3,0.2-0.7c0.1-0.3,0.1-0.6,0.2-0.9s0.2-0.6,0.2-0.9c0.1-0.3,0.1-0.5,0.1-0.5c0.1-0.4,0.2-0.7,0.3-1
		c0.1-0.3,0.3-0.6,0.4-0.8c0.2-0.2,0.3-0.4,0.5-0.5c0.2-0.1,0.4-0.2,0.6-0.2c0.5,0,0.8,0.1,1,0.3c0.2,0.2,0.3,0.6,0.3,1.1
		c0,0.2,0,0.5-0.1,0.7s-0.1,0.6-0.2,0.9c-0.2,0.6-0.3,1.1-0.4,1.5c-0.1,0.4-0.2,0.8-0.2,1.1c-0.1,0.3-0.1,0.6-0.1,0.9
		c0,0.3-0.1,0.6-0.1,0.9c0,0,0,0.1,0,0.2c0,0.1,0,0.2,0,0.2c0.8,0,1.5,0,2.2-0.1c0.7-0.1,1.5-0.2,2.2-0.2c0.4,0,0.8-0.1,1.1-0.1
		c0.3-0.1,0.6-0.1,0.9-0.1s0.5-0.1,0.8-0.1c0.3,0,0.5,0,0.8,0c0.1,0,0.2,0,0.3,0c0.1,0,0.2,0.1,0.3,0.1c0.1,0.1,0.2,0.1,0.2,0.3
		C248,120,248,120.2,248,120.4z"/>
	<path class="st0" d="M272.1,120.7c0,0.2-0.1,0.5-0.3,0.8c-0.2,0.3-0.6,0.6-1,0.8c-0.4,0.3-0.9,0.5-1.5,0.7c-0.6,0.2-1.3,0.3-2,0.3
		c-0.1,0-0.3,0-0.5,0c-0.2,0-0.4,0-0.7-0.1c-0.2,0-0.5-0.1-0.8-0.2c-0.3-0.1-0.5-0.1-0.8-0.2c-0.1,0.2-0.3,0.4-0.4,0.7
		c-0.1,0.3-0.3,0.6-0.4,1c-0.1,0.4-0.3,0.8-0.4,1.2c-0.1,0.4-0.3,0.8-0.4,1.3c-0.1,0.4-0.2,0.8-0.3,1.2c-0.1,0.4-0.2,0.8-0.4,1.3
		c-0.1,0.4-0.3,0.8-0.5,1.2s-0.4,0.7-0.6,1c-0.2,0.3-0.5,0.5-0.8,0.7c-0.3,0.2-0.6,0.3-0.9,0.3c-0.4,0-0.8-0.1-1.1-0.3
		c-0.3-0.2-0.6-0.5-0.8-0.8c-0.2-0.3-0.5-0.7-0.6-1s-0.3-0.7-0.5-1c0-0.1-0.1-0.2-0.1-0.4c-0.1-0.2-0.2-0.5-0.2-0.8
		c-0.1-0.3-0.2-0.6-0.3-1c-0.1-0.4-0.2-0.7-0.3-1c-0.1-0.3-0.2-0.7-0.3-1c-0.1-0.3-0.1-0.6-0.2-0.8c-0.1,0.2-0.2,0.5-0.3,0.8
		c-0.1,0.3-0.2,0.6-0.3,0.9s-0.2,0.6-0.3,0.9c-0.1,0.3-0.2,0.6-0.3,0.8c-0.1,0.2-0.2,0.5-0.3,0.6c-0.1,0.2-0.1,0.3-0.1,0.3
		c-0.1,0.3-0.2,0.6-0.4,0.9c-0.1,0.3-0.3,0.6-0.5,1c-0.2,0.3-0.3,0.6-0.5,1s-0.4,0.6-0.6,0.8s-0.4,0.4-0.6,0.6
		c-0.2,0.1-0.4,0.2-0.6,0.2c-0.4,0-0.7-0.1-0.9-0.2c-0.3-0.2-0.5-0.4-0.7-0.6s-0.4-0.6-0.5-0.9c-0.1-0.3-0.3-0.7-0.4-1.1
		c-0.1-0.4-0.2-0.7-0.3-1.1c-0.1-0.4-0.2-0.7-0.4-1c-0.2-0.4-0.3-0.9-0.5-1.4c-0.2-0.6-0.3-1.2-0.5-1.8c-0.2-0.6-0.3-1.2-0.4-1.8
		c-0.1-0.6-0.2-1-0.2-1.4c0-0.4,0-0.7,0.1-1c0-0.3,0.1-0.5,0.3-0.7c0.1-0.2,0.3-0.3,0.5-0.4c0.2-0.1,0.5-0.1,0.9-0.1
		c0.2,0,0.3,0,0.5,0.1c0.1,0.1,0.3,0.2,0.4,0.3s0.2,0.3,0.3,0.5c0.1,0.2,0.2,0.4,0.2,0.6c0,0.9,0.1,1.7,0.2,2.4
		c0.1,0.8,0.3,1.5,0.4,2.2c0.1,0.7,0.3,1.2,0.4,1.7c0.1,0.4,0.2,0.8,0.3,1.1c0.1,0.3,0.2,0.5,0.2,0.6c0.1,0.1,0.1,0.2,0.1,0.3
		c0-0.1,0.1-0.1,0.1-0.2c0-0.1,0.1-0.2,0.2-0.4c0.1-0.1,0.1-0.3,0.3-0.5c0.1-0.2,0.2-0.5,0.4-0.8c0-0.1,0.1-0.2,0.2-0.5
		c0.1-0.3,0.3-0.6,0.4-0.9c0.2-0.3,0.3-0.7,0.5-1.1s0.4-0.8,0.5-1.1c0.2-0.3,0.3-0.6,0.4-0.9c0.1-0.2,0.2-0.4,0.2-0.4
		c0.2-0.3,0.3-0.6,0.4-0.9c0.1-0.3,0.3-0.6,0.4-0.8c0.1-0.2,0.3-0.4,0.5-0.6c0.2-0.1,0.5-0.2,0.8-0.2c0.4,0,0.6,0.1,0.8,0.3
		c0.2,0.2,0.3,0.5,0.3,0.9c0.1,1.1,0.3,2.1,0.5,3.1c0.2,1,0.5,1.8,0.7,2.6c0.2,0.8,0.5,1.3,0.7,1.8c0.2,0.4,0.4,0.7,0.5,0.7
		c0.1,0,0.2-0.2,0.4-0.5c0.1-0.3,0.3-0.7,0.4-1.2c0.1-0.5,0.3-1,0.4-1.6c0.1-0.6,0.3-1.1,0.5-1.6c0.1-0.2,0.1-0.5,0.2-0.8
		c0.1-0.3,0.2-0.7,0.3-1c0.1-0.4,0.3-0.7,0.4-1.1c0.2-0.4,0.3-0.7,0.6-1s0.5-0.5,0.7-0.7c0.3-0.2,0.6-0.3,0.9-0.3
		c0.2,0,0.4,0,0.5,0.1c0.1,0,0.3,0.1,0.4,0.1c0.1,0.1,0.2,0.1,0.3,0.2c0.1,0.1,0.2,0.2,0.3,0.4c0.1,0.1,0.2,0.2,0.4,0.2
		c0.2,0.1,0.4,0.1,0.6,0.2c0.2,0.1,0.5,0.1,0.7,0.2c0.2,0,0.4,0.1,0.6,0.1c0.6,0,1.2-0.1,1.7-0.2c0.5-0.1,1-0.3,1.4-0.5
		c0,0,0.1-0.1,0.3-0.1s0.3-0.1,0.4-0.1c0.1,0,0.2,0,0.3,0c0.1,0,0.1,0.1,0.2,0.1c0,0.1,0.1,0.1,0.1,0.2
		C272.1,120.4,272.1,120.5,272.1,120.7z"/>
	<path class="st0" d="M284.2,123.3c0,0.2-0.1,0.5-0.2,0.8c-0.2,0.3-0.4,0.7-0.6,1c-0.3,0.4-0.6,0.8-1,1.2c-0.4,0.4-0.8,0.9-1.2,1.3
		c-0.5,0.5-1,1-1.5,1.5s-1.1,0.9-1.7,1.4c-0.6,0.4-1.2,0.8-1.8,1c-0.6,0.2-1.1,0.4-1.7,0.4c-0.6,0-1.1-0.1-1.6-0.3
		c-0.5-0.2-0.8-0.5-1.2-0.8c-0.3-0.4-0.6-0.8-0.8-1.2c-0.2-0.5-0.4-0.9-0.5-1.5c-0.1-0.5-0.2-1-0.2-1.6s-0.1-1-0.1-1.5
		c0-0.2,0-0.5,0-0.8c0-0.4,0.1-0.8,0.1-1.2c0-0.4,0.1-0.8,0.2-1.2c0.1-0.4,0.1-0.7,0.2-0.9c0.1-0.4,0.4-0.8,0.9-1.2
		c0.5-0.4,1-0.6,1.5-0.6c0.6,0,0.9,0.3,0.9,1c0,0.3,0,0.7-0.1,1c-0.1,0.4-0.1,0.7-0.2,1.1c-0.1,0.6-0.2,1.2-0.2,1.7
		c0,0.5-0.1,1-0.1,1.4c0,0.4,0,0.9,0.1,1.3s0.1,0.8,0.2,1.1c0.1,0.3,0.2,0.6,0.4,0.8c0.2,0.2,0.3,0.3,0.5,0.3c0.3,0,0.5,0,0.8-0.1
		c0.3,0,0.6-0.2,1-0.4c0.8-0.4,1.6-1,2.4-1.7c0.3-0.2,0.6-0.5,1-0.9c0.4-0.3,0.8-0.7,1.1-1c0.4-0.4,0.7-0.7,1.1-1s0.6-0.6,0.8-0.9
		c0,0,0.1-0.1,0.1-0.2c0-0.1,0.1-0.1,0.2-0.2s0.1-0.1,0.2-0.2c0.1,0,0.1-0.1,0.2-0.1c0.1,0,0.2,0,0.3,0.1c0.1,0,0.1,0.2,0.2,0.4
		C284.1,122.9,284.2,123.1,284.2,123.3z M276,112.4c0,0.3,0,0.6-0.1,0.8c-0.1,0.3-0.2,0.5-0.4,0.7c-0.3,0.5-0.8,0.7-1.5,0.7
		c-0.2,0-0.5,0-0.8-0.1c-0.3,0-0.5-0.1-0.7-0.2c-0.2-0.1-0.4-0.2-0.5-0.3c-0.1-0.1-0.2-0.3-0.2-0.4c0-0.3,0.1-0.6,0.2-0.9
		c0.1-0.3,0.3-0.6,0.5-0.8c0.2-0.3,0.5-0.5,0.7-0.6c0.3-0.2,0.5-0.3,0.8-0.3c0.3,0,0.6,0,0.8,0.1c0.2,0,0.4,0.1,0.6,0.2
		c0.2,0.1,0.3,0.2,0.4,0.4C275.9,111.9,276,112.1,276,112.4z"/>
	<path class="st0" d="M298.8,119.9c0,0.1,0,0.3-0.1,0.6c-0.1,0.3-0.2,0.5-0.3,0.8c-0.1,0.3-0.3,0.6-0.5,0.9
		c-0.2,0.3-0.4,0.6-0.6,0.9c-0.6,0.8-1.2,1.5-1.7,2.2c-0.6,0.7-1.1,1.3-1.7,1.8c-0.6,0.5-1.2,1-1.8,1.5c-0.6,0.4-1.2,0.8-1.8,1.2
		c-0.7,0.4-1.4,0.7-2.2,0.9c-0.8,0.2-1.7,0.3-2.6,0.3c-0.5,0-1-0.1-1.4-0.2s-0.8-0.4-1.1-0.7c-0.3-0.3-0.6-0.7-0.7-1.3
		s-0.3-1.1-0.3-1.8c0-0.4,0.1-0.8,0.2-1.2c0.1-0.5,0.3-0.9,0.4-1.5c0.2-0.5,0.4-1,0.7-1.5c0.3-0.5,0.5-1,0.8-1.5
		c0.3-0.5,0.6-0.9,0.9-1.3c0.3-0.4,0.6-0.7,1-1c0.2-0.2,0.4-0.3,0.7-0.5c0.3-0.1,0.6-0.3,0.9-0.4c0.3-0.1,0.6-0.2,0.9-0.3
		c0.3-0.1,0.6-0.1,0.8-0.1c0.3,0,0.6,0.1,0.9,0.2s0.6,0.3,0.8,0.5c0.2,0.2,0.4,0.4,0.6,0.6c0.1,0.2,0.2,0.5,0.2,0.7
		c0,0.2,0,0.4-0.1,0.6c-0.1,0.2-0.2,0.4-0.3,0.6c-0.1,0.2-0.3,0.3-0.4,0.4c-0.2,0.1-0.3,0.2-0.5,0.2c-0.1,0-0.3-0.1-0.4-0.2
		c-0.1-0.1-0.3-0.3-0.4-0.5c-0.1-0.2-0.2-0.3-0.3-0.4c-0.1-0.1-0.2-0.2-0.3-0.2c-0.3,0-0.7,0.1-1,0.4c-0.3,0.3-0.6,0.6-0.9,1
		c-0.3,0.4-0.6,0.8-0.8,1.3c-0.3,0.5-0.5,1-0.7,1.5c-0.2,0.5-0.3,1-0.4,1.4c-0.1,0.4-0.2,0.8-0.2,1.1c0,0.3,0,0.5,0.2,0.7
		c0.1,0.2,0.2,0.4,0.4,0.5c0.2,0.1,0.3,0.2,0.5,0.3s0.4,0.1,0.6,0.1c0.3,0,0.6,0,0.9-0.1c0.3-0.1,0.7-0.2,1-0.3
		c0.4-0.1,0.7-0.3,1-0.4c0.3-0.2,0.6-0.3,0.9-0.5c0.7-0.4,1.3-1,2-1.5c0.7-0.6,1.3-1.2,1.9-1.8c0.6-0.6,1.2-1.3,1.7-2s1-1.3,1.3-1.9
		c0.1-0.2,0.2-0.3,0.4-0.4c0.2-0.1,0.3-0.1,0.5-0.1c0.2,0,0.3,0.1,0.5,0.2S298.8,119.7,298.8,119.9z"/>
	<path class="st0" d="M314.5,126.2c0,0.1,0,0.2-0.1,0.4s-0.2,0.3-0.3,0.5c-0.1,0.2-0.3,0.3-0.5,0.5c-0.2,0.2-0.4,0.4-0.7,0.5
		c-0.3,0.2-0.7,0.5-1.1,0.7c-0.4,0.2-0.7,0.4-1.2,0.6c-0.4,0.2-0.9,0.3-1.4,0.4c-0.5,0.1-1.1,0.2-1.7,0.2c-0.5,0-0.9-0.1-1.4-0.2
		c-0.4-0.1-0.8-0.3-1.2-0.4c-0.4-0.2-0.8-0.4-1.1-0.6c-0.4-0.2-0.7-0.4-1-0.6c-0.3-0.2-0.6-0.4-0.9-0.6c-0.3-0.2-0.6-0.3-0.8-0.5
		c-0.2,0.3-0.4,0.6-0.6,0.9c-0.2,0.3-0.4,0.7-0.6,1c-0.2,0.3-0.4,0.7-0.5,1c-0.2,0.3-0.3,0.6-0.4,0.9c-0.1,0.2-0.2,0.5-0.2,0.7
		c-0.1,0.2-0.2,0.4-0.2,0.5c-0.1,0.1-0.2,0.3-0.3,0.3s-0.2,0.1-0.4,0.1c-0.2,0-0.5,0-0.7-0.1c-0.2-0.1-0.4-0.2-0.6-0.4
		s-0.3-0.4-0.4-0.7c-0.1-0.3-0.1-0.6-0.1-1c0-0.5,0-1.1,0.1-1.8c0.1-0.7,0.2-1.4,0.3-2.2s0.3-1.5,0.5-2.3c0.2-0.8,0.3-1.6,0.5-2.3
		c0-0.1,0.1-0.3,0.1-0.7c0.1-0.4,0.2-0.8,0.3-1.3c0.1-0.5,0.2-1.1,0.3-1.7c0.1-0.6,0.2-1.2,0.3-1.7c0.1-0.6,0.2-1.1,0.3-1.5
		s0.1-0.8,0.2-1c0-0.1,0-0.3,0.1-0.5c0-0.2,0.1-0.4,0.3-0.7c0.1-0.2,0.4-0.4,0.6-0.6c0.3-0.2,0.6-0.2,1.1-0.2c0.2,0,0.3,0,0.4,0.1
		c0.1,0.1,0.2,0.2,0.3,0.3s0.2,0.3,0.2,0.5c0,0.2,0.1,0.4,0.1,0.6c0,0.1,0,0.2-0.1,0.5c0,0.3-0.1,0.6-0.2,0.9s-0.1,0.7-0.2,1.2
		c-0.1,0.4-0.2,0.8-0.3,1.2s-0.2,0.8-0.3,1.2c-0.1,0.4-0.2,0.7-0.3,1c-0.1,0.5-0.3,1.1-0.5,1.7c-0.2,0.6-0.3,1.3-0.5,1.9
		c-0.2,0.6-0.3,1.2-0.5,1.8c-0.1,0.6-0.3,1.1-0.4,1.5c0.1-0.2,0.3-0.4,0.5-0.7c0.2-0.3,0.4-0.6,0.6-0.9s0.4-0.6,0.6-0.8
		s0.3-0.5,0.5-0.6c0.5-0.6,1-1.3,1.6-1.9c0.5-0.6,1-1.2,1.5-1.7c0.5-0.5,0.9-0.9,1.3-1.2c0.4-0.3,0.7-0.5,1-0.5c0.1,0,0.2,0,0.4,0.1
		c0.1,0.1,0.3,0.1,0.4,0.2c0.1,0.1,0.3,0.2,0.4,0.4c0.1,0.1,0.2,0.3,0.2,0.4c0,0.2-0.1,0.4-0.2,0.6s-0.3,0.5-0.5,0.7
		c-0.2,0.2-0.4,0.5-0.7,0.7c-0.3,0.2-0.5,0.5-0.8,0.7c-0.3,0.3-0.6,0.6-0.9,0.9c-0.3,0.3-0.6,0.6-0.9,0.9c-0.3,0.3-0.5,0.6-0.8,0.8
		c-0.2,0.3-0.4,0.5-0.6,0.6c0.3,0.2,0.7,0.5,1.2,0.8s0.9,0.5,1.4,0.8c0.5,0.2,1,0.4,1.4,0.6s0.9,0.2,1.3,0.2c0.6,0,1.1,0,1.5-0.1
		c0.4-0.1,0.8-0.2,1.2-0.3c0.4-0.1,0.7-0.2,1-0.4c0.3-0.1,0.6-0.3,0.8-0.4c0.1-0.1,0.2-0.1,0.3-0.2c0.1-0.1,0.3-0.1,0.4-0.2
		c0.1-0.1,0.3-0.1,0.4-0.2c0.1,0,0.3-0.1,0.3-0.1c0.1,0,0.2,0.1,0.3,0.2C314.5,125.8,314.5,126,314.5,126.2z"/>
	<path class="st0" d="M330.5,119.7c0,0.2-0.1,0.5-0.3,1c-0.2,0.4-0.4,1-0.7,1.5c-0.3,0.6-0.7,1.2-1.1,1.8c-0.4,0.6-0.9,1.2-1.3,1.8
		c-0.5,0.6-1,1.1-1.7,1.7c-0.6,0.6-1.3,1-2,1.5c-0.7,0.4-1.5,0.8-2.2,1c-0.8,0.3-1.6,0.4-2.4,0.4c-0.9,0-1.7-0.1-2.3-0.4
		c-0.6-0.3-1.1-0.7-1.5-1.2c-0.4-0.5-0.7-1-0.9-1.6c-0.2-0.6-0.3-1.2-0.3-1.9c0-0.6,0.1-1.1,0.2-1.7c0.1-0.6,0.3-1.1,0.5-1.6
		c0.2-0.5,0.4-1.1,0.7-1.6s0.6-1,0.9-1.4c0.2-0.3,0.5-0.6,0.8-0.9c0.3-0.3,0.7-0.6,1.1-0.8c0.4-0.3,0.8-0.5,1.3-0.6
		c0.5-0.2,1-0.3,1.5-0.3c0.4,0,0.8,0.1,1.1,0.3c0.3,0.2,0.6,0.4,0.8,0.7c0.2,0.3,0.4,0.6,0.5,0.9c0.1,0.3,0.2,0.6,0.2,0.9
		c0,0.5-0.1,1-0.3,1.5c-0.2,0.5-0.5,1-1,1.5c-0.4,0.5-1,1.1-1.7,1.6c-0.7,0.6-1.6,1.2-2.6,1.8c-0.1,0-0.1,0.1-0.2,0.1
		c-0.1,0.1-0.2,0.1-0.3,0.2s-0.1,0.1-0.2,0.1c0,0-0.1,0.1-0.1,0.1c0,0.2,0.1,0.4,0.2,0.6c0.1,0.2,0.2,0.4,0.3,0.5
		c0.2,0.2,0.4,0.3,0.6,0.4c0.3,0.1,0.6,0.1,1.1,0.1c0.3,0,0.7,0,1.1-0.1c0.4-0.1,0.8-0.2,1.2-0.3c0.4-0.1,0.8-0.3,1.2-0.5
		c0.4-0.2,0.7-0.5,1.1-0.7c0.4-0.4,0.9-0.8,1.4-1.3c0.5-0.5,1-1,1.5-1.6c0.5-0.6,0.9-1.2,1.4-1.8c0.4-0.6,0.8-1.3,1.2-2
		c0.1-0.3,0.3-0.4,0.5-0.5s0.4-0.1,0.5-0.1c0.1,0,0.2,0.1,0.3,0.2C330.5,119.1,330.5,119.4,330.5,119.7z M320.6,119.9
		c0-0.3-0.1-0.6-0.2-0.7c-0.1-0.1-0.2-0.2-0.3-0.2c-0.2,0-0.5,0.1-0.7,0.2c-0.2,0.2-0.5,0.4-0.7,0.6c-0.2,0.3-0.4,0.6-0.6,0.9
		c-0.2,0.3-0.4,0.7-0.5,1.1c-0.2,0.4-0.3,0.7-0.4,1.1c-0.1,0.4-0.2,0.7-0.2,1c0.6-0.4,1.1-0.9,1.5-1.3c0.5-0.4,0.8-0.8,1.2-1.1
		c0.3-0.3,0.6-0.6,0.8-0.9C320.5,120.3,320.6,120.1,320.6,119.9z"/>
	<path class="st0" d="M341,123c0,0.1-0.1,0.4-0.3,0.7c-0.2,0.3-0.4,0.7-0.7,1.1s-0.7,0.9-1.1,1.4c-0.4,0.5-0.9,1-1.3,1.6
		c-0.5,0.5-1,1-1.5,1.5c-0.5,0.5-1.1,0.9-1.6,1.3c-0.5,0.4-1.1,0.7-1.6,0.9c-0.5,0.2-1,0.3-1.5,0.3c-0.7,0-1.3-0.1-1.8-0.4
		c-0.5-0.3-0.8-0.6-1.1-1c-0.3-0.4-0.4-0.9-0.5-1.4c-0.1-0.5-0.1-1.1-0.1-1.6c0-0.3,0-0.8,0.1-1.4c0.1-0.6,0.1-1.3,0.2-2.1
		s0.2-1.6,0.4-2.5c0.2-0.9,0.3-1.8,0.5-2.7c0.2-0.9,0.4-1.8,0.7-2.6c0.3-0.8,0.5-1.6,0.9-2.2c0.3-0.6,0.6-1.1,1-1.5
		c0.4-0.4,0.7-0.6,1.1-0.6c0.3,0,0.5,0.1,0.7,0.3c0.2,0.2,0.2,0.6,0.2,1.1c-0.1,0.4-0.3,0.8-0.4,1.2c-0.1,0.3-0.2,0.7-0.3,1.1
		c-0.1,0.4-0.2,0.8-0.4,1.1c-0.1,0.4-0.2,0.7-0.3,0.9c-0.1,0.3-0.1,0.4-0.2,0.5c-0.2,0.8-0.4,1.6-0.6,2.4c-0.2,0.8-0.3,1.6-0.5,2.3
		c-0.1,0.8-0.2,1.5-0.3,2.2c-0.1,0.7-0.1,1.4-0.1,2.1c0,0.3,0,0.6,0.1,0.9c0.1,0.2,0.2,0.4,0.3,0.6s0.2,0.3,0.4,0.3
		c0.2,0.1,0.3,0.1,0.5,0.1c0.3,0,0.6-0.1,1-0.2s0.8-0.4,1.2-0.7c0.4-0.3,0.8-0.6,1.2-1c0.4-0.4,0.8-0.7,1.3-1.2
		c0.4-0.4,0.8-0.8,1.2-1.3c0.4-0.4,0.8-0.8,1.1-1.3c0.1-0.1,0.2-0.2,0.3-0.4c0.1-0.1,0.3-0.2,0.4-0.3c0.1-0.1,0.3-0.2,0.4-0.2
		c0.1-0.1,0.3-0.1,0.4-0.1s0.2,0,0.3,0.1C341,122.7,341,122.8,341,123z"/>
	<path class="st0" d="M350.1,119.7c0,0.2-0.1,0.4-0.2,0.5c-0.1,0.1-0.3,0.3-0.5,0.3s-0.4,0.2-0.6,0.2c-0.2,0-0.4,0.1-0.6,0.1
		c-0.7,0-1.3,0.1-2,0.2c-0.7,0.1-1.3,0.1-1.8,0.2c-0.5,0.1-1,0.1-1.3,0.2c-0.3,0-0.5,0.1-0.6,0.1c-0.1,0.2-0.1,0.5-0.2,0.9
		c-0.1,0.4-0.2,0.8-0.3,1.2c-0.1,0.4-0.2,0.8-0.3,1.3c-0.1,0.4-0.2,0.9-0.3,1.2c-0.1,0.4-0.1,0.8-0.2,1.1c0,0.3-0.1,0.6-0.1,0.8
		c0,0.1,0,0.3,0,0.6c0,0.2,0.1,0.4,0.2,0.7c0.1,0.2,0.2,0.4,0.3,0.5c0.1,0.2,0.3,0.2,0.5,0.2c0.1,0,0.3,0,0.5-0.1
		c0.2-0.1,0.4-0.2,0.7-0.3c0.3-0.1,0.5-0.3,0.8-0.5c0.3-0.2,0.6-0.5,0.8-0.8c0.1-0.1,0.2-0.2,0.3-0.3c0.1-0.1,0.2-0.2,0.4-0.3
		c0.1-0.1,0.3-0.2,0.4-0.2c0.2-0.1,0.3-0.1,0.5-0.1c0.3,0,0.4,0.1,0.5,0.2s0.1,0.3,0.1,0.4c0,0.4-0.1,0.7-0.3,1s-0.5,0.6-0.8,1
		c-0.1,0.2-0.4,0.4-0.7,0.7c-0.3,0.3-0.7,0.6-1.1,0.8c-0.4,0.3-0.9,0.5-1.4,0.7c-0.5,0.2-1.1,0.3-1.6,0.3c-0.6,0-1-0.1-1.4-0.2
		c-0.4-0.1-0.7-0.3-0.9-0.6c-0.3-0.2-0.4-0.5-0.6-0.8c-0.1-0.3-0.2-0.6-0.3-0.9c-0.1-0.3-0.1-0.6-0.1-0.9c0-0.3,0-0.6,0-0.8
		c0-0.3,0-0.6,0.1-0.9c0.1-0.3,0.1-0.7,0.2-1.1c0.1-0.4,0.2-0.8,0.3-1.2c0.1-0.4,0.2-0.8,0.3-1.2c0.1-0.4,0.1-0.7,0.2-1
		c0.1-0.3,0.1-0.6,0.1-0.8c0-0.1,0-0.1,0-0.1c0,0,0-0.1-0.1-0.1c-0.1,0-0.1-0.1-0.3-0.1c-0.1,0-0.3,0-0.5,0c-0.2,0-0.5,0-0.7,0
		c-0.3,0-0.5-0.1-0.7-0.1c-0.2-0.1-0.4-0.2-0.5-0.4c-0.1-0.2-0.2-0.4-0.2-0.7c0-0.2,0-0.4,0.1-0.5c0.1-0.1,0.2-0.2,0.3-0.3
		c0.1-0.1,0.2-0.1,0.4-0.2c0.1,0,0.3-0.1,0.5-0.1l2.8-0.1c0.1-0.1,0.1-0.3,0.3-0.6c0.1-0.3,0.2-0.6,0.4-1c0.1-0.4,0.3-0.8,0.4-1.2
		c0.1-0.4,0.3-0.8,0.4-1.2c0.2-0.5,0.4-0.9,0.7-1.2s0.6-0.4,1.1-0.4c0.3,0,0.5,0,0.7,0.1c0.2,0.1,0.3,0.2,0.3,0.3s0.1,0.2,0.1,0.4
		c0,0.1,0,0.3,0,0.4c0,0,0,0.1-0.1,0.3c0,0.2-0.1,0.4-0.2,0.6c-0.1,0.2-0.2,0.5-0.3,0.8c-0.1,0.3-0.2,0.6-0.3,0.9
		c-0.1,0.3-0.2,0.6-0.3,0.8c-0.1,0.3-0.2,0.5-0.2,0.7c0.1,0,0.3,0,0.5-0.1c0.2,0,0.5-0.1,0.8-0.1c0.3,0,0.6-0.1,1-0.1
		c0.3,0,0.7-0.1,1-0.1c0.3,0,0.6-0.1,0.8-0.1c0.2,0,0.4,0,0.4,0c0.5,0,0.9,0,1.2,0.1c0.3,0,0.5,0.1,0.7,0.2s0.3,0.2,0.3,0.4
		S350.1,119.5,350.1,119.7z"/>
	<path class="st0" d="M353.5,128.8c0,0.2-0.1,0.5-0.2,1.1c0,0.3-0.3,0.6-0.8,1c-0.4,0.3-0.8,0.5-1.2,0.5c-1,0-1.5-0.5-1.5-1.6
		c0-0.2,0.1-0.4,0.2-0.6c0.1-0.3,0.2-0.5,0.4-0.7c0.2-0.2,0.4-0.4,0.6-0.6c0.2-0.2,0.5-0.2,0.7-0.2c0.1,0,0.3,0,0.5,0.1
		c0.2,0.1,0.4,0.2,0.6,0.3c0.2,0.1,0.3,0.2,0.5,0.4C353.4,128.6,353.5,128.7,353.5,128.8z M355.8,113.3c0,0.1,0,0.3-0.1,0.6
		c-0.1,0.3-0.1,0.7-0.2,1.1c-0.1,0.4-0.2,0.8-0.3,1.3c-0.1,0.5-0.2,0.9-0.3,1.4c-0.2,0.9-0.4,1.8-0.7,2.7c-0.2,0.9-0.4,1.8-0.6,2.7
		c0,0.2,0,0.4,0,0.6c0,0.2,0,0.3,0,0.5c0,0.2-0.1,0.3-0.1,0.5c-0.1,0.2-0.2,0.4-0.3,0.6c-0.5,0-0.9,0-1.2-0.1
		c-0.3-0.1-0.6-0.2-0.8-0.4c0-0.1,0-0.3,0-0.4c0-0.2,0-0.3,0-0.5c0-0.6,0-1.3,0.1-2.1c0.1-0.8,0.2-1.5,0.3-2.3
		c0.2-0.8,0.3-1.6,0.5-2.3c0.1-0.7,0.2-1.4,0.2-2.1c0-0.2,0-0.6,0.1-1c0-0.2,0.1-0.4,0.1-0.6s0.1-0.3,0.2-0.4
		c0.1-0.1,0.2-0.2,0.3-0.4c0.1-0.1,0.3-0.2,0.4-0.3s0.4-0.2,0.5-0.3c0.2-0.1,0.3-0.1,0.5-0.1c0.4,0,0.7,0.1,1,0.4
		c0.2,0.1,0.3,0.3,0.4,0.4C355.7,113,355.8,113.2,355.8,113.3z"/>
</g>
<path class="st1" d="M63.5,95H38.8c-1.3,0-1.9-0.6-1.9-1.9v-4.9c0-1.2,0.6-1.8,1.9-1.8h23.3c7.2,0,10.8-2.7,10.8-8v-2.6
	c0-4.9-2.4-8.3-7.1-10.1l-16.4-6.9c-4.7-1.9-8.1-4.2-10.1-6.9c-2-2.6-3-6.1-3-10.5c0-11.4,6.2-17,18.7-17h22.7
	c1.3,0,1.9,0.6,1.9,1.9v4.9c0,1.2-0.6,1.8-1.9,1.8H56.8c-3.3,0-5.8,0.7-7.6,2.1c-1.7,1.4-2.6,3-2.6,4.9v2.4c0,3.9,2.6,6.8,7.9,8.9
	L71,58.5c4.8,1.8,8.1,4.3,9.8,7.3c1.7,3,2.6,7.3,2.6,12.6C83.3,89.5,76.7,95,63.5,95z"/>
</svg>
